<svg width="90" height="30" viewBox="0 0 90 30" fill="none" xmlns="http://www.w3.org/2000/svg">
<path d="M82.671 0H6.335C6.105 0.002 5.878 0.006 5.645 0.01C5.142 0.016 4.639 0.06 4.141 0.142C3.645 0.225 3.164 0.382 2.714 0.608C2.266 0.836 1.856 1.133 1.499 1.486C1.141 1.839 0.843 2.246 0.615 2.693C0.387 3.139 0.229 3.617 0.145 4.111C0.062 4.603 0.017 5.101 0.011 5.601C0.004 5.83 0.004 6.059 0 6.287V23.5C0.004 23.731 0.004 23.955 0.011 24.187C0.017 24.687 0.062 25.185 0.146 25.677C0.228 26.171 0.386 26.649 0.615 27.095C0.842 27.541 1.141 27.947 1.499 28.298C1.854 28.653 2.265 28.949 2.714 29.175C3.164 29.402 3.644 29.56 4.141 29.645C4.639 29.726 5.141 29.77 5.646 29.777C5.878 29.782 6.106 29.785 6.336 29.785L7.157 29.786H82.671L83.485 29.785C83.714 29.785 83.948 29.782 84.177 29.777C84.68 29.771 85.182 29.727 85.678 29.645C86.177 29.56 86.659 29.401 87.111 29.175C87.561 28.949 87.97 28.653 88.325 28.298C88.682 27.946 88.981 27.54 89.212 27.095C89.438 26.649 89.595 26.171 89.676 25.677C89.76 25.185 89.806 24.687 89.816 24.187C89.819 23.955 89.819 23.731 89.819 23.5C89.824 23.23 89.824 22.96 89.824 22.686V7.1C89.824 6.828 89.824 6.557 89.819 6.287C89.819 6.059 89.819 5.83 89.816 5.602C89.806 5.102 89.76 4.604 89.676 4.111C89.595 3.618 89.438 3.14 89.212 2.693C88.748 1.8 88.014 1.07 87.11 0.61C86.658 0.385 86.176 0.228 85.677 0.143C85.181 0.061 84.679 0.017 84.177 0.012C83.947 0.008 83.713 0.004 83.484 0.002L82.671 0Z" fill="#A6A6A6"/>
<path d="M6.339 29.136C6.11 29.136 5.887 29.133 5.66 29.128C5.19 29.122 4.721 29.081 4.257 29.006C3.824 28.932 3.405 28.795 3.014 28.598C2.625 28.403 2.271 28.148 1.964 27.841C1.654 27.538 1.395 27.187 1.199 26.801C1 26.413 0.863 25.997 0.79 25.567C0.713 25.106 0.671 24.639 0.665 24.171C0.661 24.014 0.655 23.491 0.655 23.491V6.288C0.655 6.288 0.661 5.773 0.665 5.622C0.671 5.155 0.713 4.689 0.79 4.228C0.861 3.798 0.999 3.38 1.198 2.99C1.393 2.605 1.651 2.253 1.96 1.95C2.268 1.642 2.623 1.386 3.012 1.188C3.403 0.992 3.822 0.855 4.253 0.783C4.72 0.707 5.19 0.666 5.662 0.66L6.34 0.65H83.482L84.168 0.66C84.635 0.666 85.102 0.706 85.563 0.781C85.999 0.855 86.422 0.992 86.817 1.189C87.597 1.587 88.23 2.218 88.63 2.991C88.825 3.378 88.96 3.792 89.032 4.219C89.109 4.684 89.153 5.153 89.162 5.624C89.164 5.835 89.164 6.062 89.164 6.287C89.17 6.567 89.17 6.832 89.17 7.1V22.686C89.17 22.956 89.17 23.22 89.164 23.486C89.164 23.728 89.164 23.95 89.161 24.179C89.153 24.641 89.11 25.102 89.033 25.559C88.963 25.992 88.826 26.411 88.628 26.802C88.43 27.184 88.173 27.532 87.865 27.834C87.559 28.142 87.204 28.4 86.815 28.596C86.421 28.794 85.998 28.932 85.563 29.006C85.099 29.08 84.63 29.121 84.16 29.126C83.94 29.132 83.71 29.135 83.486 29.135L82.672 29.136L6.34 29.135L6.339 29.136Z" fill="black"/>
<path d="M18.593 15.117C18.61 13.854 19.277 12.687 20.363 12.025C19.675 11.051 18.564 10.455 17.366 10.418C16.106 10.288 14.884 11.167 14.241 11.167C13.587 11.167 12.598 10.431 11.533 10.453C10.132 10.498 8.857 11.269 8.175 12.484C6.724 14.978 7.806 18.643 9.197 20.658C9.893 21.645 10.706 22.748 11.77 22.708C12.811 22.666 13.2 22.05 14.457 22.05C15.702 22.05 16.067 22.709 17.152 22.684C18.27 22.666 18.973 21.692 19.645 20.696C20.145 19.993 20.529 19.216 20.785 18.393C19.458 17.836 18.595 16.546 18.593 15.117ZM16.543 9.093C17.152 8.367 17.453 7.435 17.379 6.493C16.449 6.59 15.589 7.032 14.972 7.729C14.362 8.418 14.053 9.319 14.113 10.232C15.056 10.242 15.952 9.823 16.543 9.093Z" fill="white"/>
<path d="M31.755 20.21H28.202L27.349 22.709H25.843L29.209 13.462H30.773L34.138 22.709H32.608L31.755 20.21ZM28.57 19.056H31.386L29.998 15H29.959L28.57 19.056ZM41.406 19.338C41.406 21.433 40.276 22.78 38.57 22.78C37.688 22.825 36.858 22.367 36.432 21.6H36.4V24.94H35.005V15.967H36.355V17.087H36.381C36.826 16.325 37.657 15.867 38.544 15.895C40.269 15.895 41.406 17.249 41.406 19.338ZM39.972 19.338C39.972 17.973 39.262 17.076 38.176 17.076C37.111 17.076 36.394 17.992 36.394 19.338C36.394 20.697 37.111 21.607 38.176 21.607C39.261 21.607 39.972 20.716 39.972 19.338ZM48.886 19.338C48.886 21.433 47.756 22.78 46.05 22.78C45.168 22.825 44.338 22.367 43.912 21.6H43.88V24.94H42.485V15.967H43.835V17.087H43.86C44.305 16.325 45.137 15.867 46.024 15.895C47.749 15.895 48.886 17.249 48.886 19.338ZM47.452 19.338C47.452 17.973 46.742 17.076 45.656 17.076C44.591 17.076 43.874 17.992 43.874 19.338C43.874 20.697 44.591 21.607 45.656 21.607C46.741 21.607 47.452 20.716 47.452 19.338ZM53.83 20.132C53.933 21.049 54.831 21.652 56.058 21.652C57.234 21.652 58.08 21.049 58.08 20.222C58.08 19.505 57.57 19.075 56.362 18.78L55.154 18.492C53.442 18.082 52.648 17.287 52.648 15.999C52.648 14.403 54.049 13.307 56.039 13.307C58.009 13.307 59.359 14.403 59.405 15.999H57.997C57.912 15.076 57.143 14.519 56.02 14.519C54.896 14.519 54.127 15.083 54.127 15.903C54.127 16.557 54.617 16.941 55.819 17.236L56.846 17.486C58.759 17.935 59.554 18.696 59.554 20.049C59.554 21.779 58.164 22.863 55.955 22.863C53.888 22.863 52.492 21.805 52.402 20.133L53.83 20.132ZM62.564 14.371V15.967H63.857V17.063H62.563V20.78C62.563 21.357 62.822 21.626 63.39 21.626C63.543 21.623 63.697 21.613 63.849 21.594V22.684C63.593 22.731 63.334 22.752 63.074 22.748C61.698 22.748 61.162 22.235 61.162 20.928V17.062H60.173V15.967H61.162V14.371H62.564ZM64.605 19.338C64.605 17.217 65.865 15.884 67.828 15.884C69.798 15.884 71.052 17.217 71.052 19.338C71.052 21.465 69.805 22.793 67.828 22.793C65.852 22.793 64.605 21.465 64.605 19.338ZM69.631 19.338C69.631 17.883 68.959 17.024 67.828 17.024C66.698 17.024 66.026 17.89 66.026 19.338C66.026 20.799 66.698 21.652 67.828 21.652C68.958 21.652 69.631 20.799 69.631 19.338ZM72.203 15.967H73.533V17.114H73.565C73.751 16.376 74.433 15.867 75.2 15.896C75.36 15.896 75.52 15.913 75.678 15.948V17.242C75.475 17.181 75.263 17.152 75.051 17.159C74.641 17.142 74.244 17.304 73.964 17.603C73.684 17.901 73.551 18.305 73.597 18.71V22.709H72.203V15.967ZM82.109 20.729C81.922 21.953 80.72 22.793 79.183 22.793C77.206 22.793 75.979 21.479 75.979 19.37C75.979 17.256 77.213 15.884 79.124 15.884C81.004 15.884 82.187 17.165 82.187 19.21V19.684H77.387V19.767C77.342 20.269 77.517 20.767 77.867 21.132C78.217 21.497 78.707 21.696 79.215 21.677C79.892 21.74 80.53 21.354 80.785 20.729H82.109ZM77.394 18.717H80.791C80.817 18.265 80.651 17.824 80.335 17.5C80.018 17.175 79.58 16.996 79.125 17.005C78.665 17.003 78.225 17.182 77.9 17.503C77.575 17.825 77.392 18.261 77.394 18.717Z" fill="white"/>
<path d="M27.577 8.38H28.176C28.384 8.406 28.594 8.344 28.754 8.21C28.914 8.075 29.011 7.88 29.02 7.671C29.02 7.261 28.71 6.997 28.182 6.997C27.969 6.967 27.752 7.025 27.582 7.156C27.412 7.286 27.302 7.48 27.278 7.693H26.622C26.644 7.307 26.827 6.947 27.127 6.702C27.427 6.455 27.817 6.344 28.204 6.393C29.085 6.393 29.706 6.883 29.706 7.588C29.711 8.075 29.372 8.498 28.893 8.604V8.657C29.466 8.682 29.911 9.162 29.889 9.731C29.848 10.128 29.647 10.492 29.332 10.741C29.018 10.989 28.615 11.101 28.216 11.052C27.816 11.106 27.411 10.997 27.094 10.749C26.776 10.501 26.574 10.136 26.534 9.737H27.202C27.242 10.163 27.635 10.437 28.216 10.437C28.796 10.437 29.176 10.129 29.176 9.695C29.176 9.255 28.819 8.983 28.195 8.983H27.577V8.38ZM30.648 9.997C30.648 9.393 31.101 9.045 31.905 8.995L32.82 8.943V8.653C32.82 8.299 32.585 8.099 32.128 8.099C31.756 8.099 31.498 8.235 31.424 8.472H30.778C30.846 7.896 31.393 7.527 32.16 7.527C33.007 7.527 33.485 7.945 33.485 8.654V10.944H32.842V10.474H32.79C32.571 10.818 32.184 11.019 31.774 11C31.487 11.03 31.201 10.937 30.986 10.746C30.772 10.555 30.649 10.284 30.648 9.997ZM32.82 9.71V9.43L31.995 9.482C31.529 9.512 31.318 9.67 31.318 9.965C31.318 10.267 31.582 10.443 31.945 10.443C32.16 10.464 32.375 10.399 32.539 10.26C32.704 10.122 32.806 9.924 32.82 9.71ZM35.255 8.148V10.945H34.588V7.591H36.814V8.148H35.255ZM40.857 9.267C40.857 10.332 40.314 11 39.46 11C39.033 11.029 38.627 10.81 38.42 10.437H38.367V12.06H37.7V7.591H38.342V8.146H38.392C38.602 7.761 39.012 7.526 39.454 7.536C40.314 7.536 40.857 8.202 40.857 9.267ZM40.171 9.267C40.171 8.558 39.833 8.13 39.267 8.13C38.706 8.13 38.355 8.567 38.355 9.27C38.355 9.968 38.705 10.406 39.265 10.406C39.833 10.406 40.171 9.979 40.171 9.267ZM41.745 12.146V11.576C41.817 11.585 41.89 11.589 41.963 11.588C42.257 11.61 42.521 11.408 42.574 11.12L42.624 10.957L41.401 7.591H42.127L42.974 10.255H43.027L43.872 7.591H44.579L43.319 11.083C43.03 11.899 42.711 12.161 42.022 12.161C41.966 12.161 41.807 12.155 41.745 12.146ZM45.099 9.993H45.763C45.828 10.289 46.107 10.443 46.498 10.443C46.942 10.443 47.215 10.249 47.215 9.947C47.215 9.624 46.97 9.47 46.498 9.47H45.992V8.955H46.489C46.893 8.955 47.098 8.802 47.098 8.521C47.098 8.275 46.899 8.087 46.489 8.087C46.116 8.087 45.844 8.244 45.8 8.509H45.157C45.257 7.876 45.85 7.439 46.489 7.527C47.293 7.527 47.752 7.887 47.752 8.454C47.76 8.779 47.538 9.064 47.219 9.14V9.192C47.6 9.242 47.884 9.566 47.88 9.947C47.88 10.584 47.333 11.007 46.498 11.007C45.76 11.007 45.161 10.671 45.099 9.993ZM48.841 10.945V7.591H49.502V9.898H49.555L51.112 7.591H51.774V10.945H51.112V8.626H51.063L49.502 10.945H48.841ZM55.416 8.148H54.352V10.945H53.684V8.148H52.619V7.591H55.416V8.148ZM59.009 10.039C58.822 10.672 58.205 11.08 57.544 11.009C57.094 11.021 56.66 10.836 56.36 10.503C56.059 10.169 55.921 9.722 55.983 9.279C55.923 8.834 56.06 8.386 56.359 8.049C56.658 7.714 57.089 7.523 57.541 7.527C58.481 7.527 59.05 8.164 59.05 9.217V9.448H56.662V9.485C56.641 9.734 56.726 9.98 56.898 10.163C57.069 10.346 57.31 10.449 57.562 10.446C57.888 10.484 58.206 10.324 58.366 10.039H59.009ZM56.663 8.959H58.369C58.387 8.731 58.306 8.507 58.148 8.342C57.989 8.176 57.768 8.085 57.538 8.09C57.305 8.087 57.081 8.177 56.916 8.34C56.751 8.505 56.66 8.727 56.663 8.959ZM63.362 7.591C64.022 7.591 64.411 7.924 64.411 8.444C64.413 8.784 64.175 9.08 63.839 9.152V9.205C64.249 9.23 64.567 9.57 64.562 9.978C64.562 10.563 64.119 10.945 63.377 10.945H61.837V7.591H63.362ZM62.498 8.099V8.968H63.16C63.563 8.968 63.756 8.814 63.756 8.53C63.756 8.269 63.588 8.1 63.234 8.1H62.499L62.498 8.099ZM62.498 9.454V10.437H63.29C63.684 10.437 63.895 10.264 63.895 9.947C63.895 9.611 63.656 9.454 63.206 9.454H62.498Z" fill="white"/>
</svg>
