<!-- Generated by IcoMoon.io -->
<svg version="1.1" xmlns="http://www.w3.org/2000/svg" width="11" height="20" viewBox="0 0 11 20">
<title>map-marker</title>
<path d="M8.571 7.143c0-1.574-1.283-2.857-2.857-2.857s-2.857 1.283-2.857 2.857 1.283 2.857 2.857 2.857 2.857-1.283 2.857-2.857zM11.429 7.143c0 0.681-0.078 1.384-0.368 1.998l-4.063 8.638c-0.234 0.491-0.748 0.792-1.283 0.792s-1.049-0.301-1.272-0.792l-4.074-8.638c-0.29-0.614-0.368-1.317-0.368-1.998 0-3.158 2.556-5.714 5.714-5.714s5.714 2.556 5.714 5.714z"></path>
</svg>
