<svg aria-hidden="true" style="position: absolute; width: 0; height: 0; overflow: hidden;" version="1.1" xmlns="http://www.w3.org/2000/svg" xmlns:xlink="http://www.w3.org/1999/xlink">
<defs>
<symbol id="icon-user" viewBox="0 0 20 20">
<path d="M14.916 9.586c0.046-0.272 0.084-0.549 0.084-0.836v-3.75c0-2.761-2.239-5-5-5s-5 2.239-5 5v3.75c0 0.287 0.038 0.564 0.084 0.836-3.025 1.074-5.084 3.085-5.084 5.414v3.75c0 0.691 0.559 1.25 1.25 1.25h17.5c0.691 0 1.25-0.559 1.25-1.25v-3.75c0-2.329-2.059-4.34-5.084-5.414zM7.5 5c0-1.381 1.119-2.5 2.5-2.5s2.5 1.119 2.5 2.5v3.75c0 1.381-1.119 2.5-2.5 2.5s-2.5-1.119-2.5-2.5v-3.75zM17.5 17.5h-15v-2.5c0-1.35 1.438-2.523 3.578-3.184 0.916 1.169 2.323 1.934 3.922 1.934s3.007-0.764 3.922-1.934c2.14 0.66 3.578 1.834 3.578 3.184v2.5z"></path>
</symbol>
<symbol id="icon-shopping-bag" viewBox="0 0 20 20">
<path d="M15.833 4.167h-11.667l1.25-1.667h9.167zM18.162 4.493l-2.495-3.327c-0.163-0.218-0.412-0.333-0.667-0.333h-10c-0.272 0-0.513 0.13-0.667 0.333l-2.495 3.327c-0.036 0.047-0.068 0.097-0.093 0.152-0.054 0.114-0.080 0.236-0.079 0.355v11.667c0 0.69 0.281 1.317 0.732 1.767s1.078 0.733 1.768 0.733h11.667c0.69 0 1.317-0.281 1.768-0.733s0.732-1.078 0.732-1.767v-11.667c0-0.183-0.059-0.352-0.157-0.487-0.003-0.004-0.006-0.008-0.009-0.013zM3.333 5.833h13.333v10.833c0 0.23-0.092 0.438-0.244 0.589s-0.359 0.244-0.589 0.244h-11.667c-0.23 0-0.437-0.093-0.589-0.244s-0.244-0.359-0.244-0.589zM12.5 8.333c0 0.691-0.279 1.314-0.732 1.768s-1.077 0.732-1.768 0.732-1.314-0.279-1.768-0.732-0.732-1.077-0.732-1.768c0-0.46-0.373-0.833-0.833-0.833s-0.833 0.373-0.833 0.833c0 1.15 0.467 2.193 1.22 2.947s1.797 1.22 2.947 1.22 2.193-0.468 2.947-1.22 1.22-1.797 1.22-2.947c0-0.46-0.373-0.833-0.833-0.833s-0.833 0.373-0.833 0.833z"></path>
</symbol>
<symbol id="icon-heart-o" viewBox="0 0 20 20">
<path d="M18.571 6.652c0-3.136-2.121-3.795-3.906-3.795-1.663 0-3.538 1.797-4.118 2.489-0.268 0.324-0.826 0.324-1.094 0-0.58-0.692-2.455-2.489-4.118-2.489-1.786 0-3.906 0.658-3.906 3.795 0 2.042 2.065 3.94 2.087 3.962l6.484 6.25 6.473-6.239c0.033-0.033 2.098-1.931 2.098-3.973zM20 6.652c0 2.679-2.455 4.922-2.556 5.022l-6.953 6.696c-0.134 0.134-0.313 0.201-0.491 0.201s-0.357-0.067-0.491-0.201l-6.964-6.719c-0.089-0.078-2.545-2.321-2.545-5 0-3.27 1.998-5.223 5.335-5.223 1.953 0 3.783 1.54 4.665 2.411 0.882-0.871 2.712-2.411 4.665-2.411 3.337 0 5.335 1.953 5.335 5.223z"></path>
</symbol>
<symbol id="icon-instagram" viewBox="0 0 17 20">
<path d="M11.429 10c0-1.574-1.283-2.857-2.857-2.857s-2.857 1.283-2.857 2.857 1.283 2.857 2.857 2.857 2.857-1.283 2.857-2.857zM12.969 10c0 2.433-1.964 4.397-4.397 4.397s-4.397-1.964-4.397-4.397 1.964-4.397 4.397-4.397 4.397 1.964 4.397 4.397zM14.174 5.424c0 0.569-0.458 1.027-1.027 1.027s-1.027-0.458-1.027-1.027 0.458-1.027 1.027-1.027 1.027 0.458 1.027 1.027zM8.571 2.969c-1.25 0-3.929-0.1-5.056 0.346-0.391 0.156-0.681 0.346-0.982 0.647s-0.491 0.592-0.647 0.982c-0.446 1.127-0.346 3.806-0.346 5.056s-0.1 3.929 0.346 5.056c0.156 0.391 0.346 0.681 0.647 0.982s0.592 0.491 0.982 0.647c1.127 0.446 3.806 0.346 5.056 0.346s3.929 0.1 5.056-0.346c0.391-0.156 0.681-0.346 0.982-0.647s0.491-0.592 0.647-0.982c0.446-1.127 0.346-3.806 0.346-5.056s0.1-3.929-0.346-5.056c-0.156-0.391-0.346-0.681-0.647-0.982s-0.592-0.491-0.982-0.647c-1.127-0.446-3.806-0.346-5.056-0.346zM17.143 10c0 1.183 0.011 2.355-0.056 3.538-0.067 1.373-0.379 2.589-1.384 3.594s-2.221 1.317-3.594 1.384c-1.183 0.067-2.355 0.056-3.538 0.056s-2.355 0.011-3.538-0.056c-1.373-0.067-2.589-0.379-3.594-1.384s-1.317-2.221-1.384-3.594c-0.067-1.183-0.056-2.355-0.056-3.538s-0.011-2.355 0.056-3.538c0.067-1.373 0.379-2.589 1.384-3.594s2.221-1.317 3.594-1.384c1.183-0.067 2.355-0.056 3.538-0.056s2.355-0.011 3.538 0.056c1.373 0.067 2.589 0.379 3.594 1.384s1.317 2.221 1.384 3.594c0.067 1.183 0.056 2.355 0.056 3.538z"></path>
</symbol>
<symbol id="icon-facebook" viewBox="0 0 12 20">
<path d="M10.703 0.134v2.946h-1.752c-1.373 0-1.629 0.658-1.629 1.607v2.109h3.27l-0.435 3.304h-2.835v8.471h-3.415v-8.471h-2.846v-3.304h2.846v-2.433c0-2.824 1.73-4.364 4.252-4.364 1.205 0 2.243 0.089 2.545 0.134z"></path>
</symbol>
<symbol id="icon-location" viewBox="0 0 20 20">
<path d="M10.001 11.091c2.068 0 3.75-1.682 3.75-3.75s-1.682-3.75-3.75-3.75c-2.068 0-3.75 1.682-3.75 3.75s1.682 3.75 3.75 3.75zM10.001 4.216c1.724 0 3.125 1.401 3.125 3.125s-1.401 3.125-3.125 3.125c-1.724 0-3.125-1.401-3.125-3.125s1.401-3.125 3.125-3.125zM10 0c-4.136 0-7.5 3.322-7.5 7.501 0 4.375 3.751 8.851 6.485 11.996 0.010 0.012 0.449 0.503 0.991 0.503 0.001 0 0.046 0 0.048 0 0.542 0 0.981-0.491 0.991-0.503 2.736-3.146 6.486-7.621 6.486-11.996 0-4.178-3.364-7.501-7.501-7.501zM10.073 18.677c-0.013 0.012-0.051 0.040-0.084 0.061-0.006-0.017-0.053-0.054-0.081-0.083-2.291-2.636-6.158-7.084-6.158-11.154 0-3.446 2.804-6.251 6.25-6.251 3.447 0 6.251 2.804 6.251 6.251 0 4.070-3.867 8.518-6.178 11.176z"></path>
</symbol>
<symbol id="icon-map-marker" viewBox="0 0 11 20">
<path d="M8.571 7.143c0-1.574-1.283-2.857-2.857-2.857s-2.857 1.283-2.857 2.857 1.283 2.857 2.857 2.857 2.857-1.283 2.857-2.857zM11.429 7.143c0 0.681-0.078 1.384-0.368 1.998l-4.063 8.638c-0.234 0.491-0.748 0.792-1.283 0.792s-1.049-0.301-1.272-0.792l-4.074-8.638c-0.29-0.614-0.368-1.317-0.368-1.998 0-3.158 2.556-5.714 5.714-5.714s5.714 2.556 5.714 5.714z"></path>
</symbol>
</defs>
</svg>
